<svg id="ekSm5IcC1yw1" xmlns="http://www.w3.org/2000/svg" xmlns:xlink="http://www.w3.org/1999/xlink" viewBox="0 0 52.19 50.76" shape-rendering="geometricPrecision" text-rendering="geometricPrecision"><g><path id="ekSm5IcC1yw3" d="M0,39.17v5.33c0,1.87.43,3.28,1.29,4.22.86.95,1.96,1.42,3.29,1.42s2.52-.47,3.38-1.4s1.29-2.35,1.29-4.24v-6.66c-3.33.92-6.22,1.77-9.26,1.33Z" fill="#3fd4a2"/><path id="ekSm5IcC1yw4" d="M2.88,4.64c2.98.31,5.18,2.29,7.17,4.79v-3.47c0-1.89-.43-3.3-1.29-4.22s-1.99-1.39-3.38-1.39-2.45.47-3.3,1.4c-.64.71-1.04,1.68-1.2,2.93.68-.09,1.35-.11,2-.04Z" fill="#0112ad" stroke="#3fd4a2" stroke-width="0.55" stroke-miterlimit="10"/><path id="ekSm5IcC1yw5" d="M45.43,41.12c-.55.15-1.07.24-1.59.29.23.43.45.79.66,1.06.35.45.79.8,1.31,1.06s1.14.39,1.87.39c1.25,0,2.31-.44,3.19-1.32s1.32-1.85,1.32-2.91c0-.57-1.17-3.23-1.47-4.19-.48,3.02-3.08,5.05-5.3,5.64Z" fill="#3fd4a2"/><path id="ekSm5IcC1yw6" d="M29.18,24.84l3.35-14.81l1.22,4.62c5.5-3.64,2.5,3.17,9.9,2.41L40.42,8.19c-.35-.76-.81-1.93-1.18-2.82-.36-.88-.81-1.71-1.34-2.48s-1.23-1.4-2.09-1.89-1.94-.73-3.23-.73-2.33.24-3.19.73-1.56,1.13-2.09,1.92-1.03,1.78-1.5,2.98c-.47,1.19-.87,2.22-1.2,3.07L19.66,21.5c1.27-.22,2.79-.79,5.19-1.7c1.89-.72.27,4.79,4.31,5.05Z" fill="#0112ad" stroke="#3fd4a2" stroke-width="0.55" stroke-miterlimit="10"/><path id="ekSm5IcC1yw7" d="M15.65,34.4l-3.08,7.19c-.48,1.18-.82,2.11-1.03,2.77-.21.67-.31,1.31-.31,1.93c0,1.08.45,2.05,1.34,2.9s1.92,1.28,3.09,1.28c1.37,0,2.36-.4,2.96-1.2.51-.68,1.2-1.63,1.91-3.32.3-.71.65-1.4,1.05-2.06l.35-.59l1-1.31c.56-.74,1.19-1.42,1.88-2.05c1.11-1.02,2.83-2.7,2.7-2.66-5.45,1.43-6.85-3.74-7.27-3.97-1.27-.68-3.32,1.06-4.59,1.08Z" fill="#0112ad" stroke="#3fd4a2" stroke-width="0.55" stroke-miterlimit="10"/><g style="mix-blend-mode:hard-light"><path d="M0,37.3c3.6.49,5.2-.17,9.08-1.15c0,.24,0,.36,0,.6-3.91,1.08-5.5,1.8-9.08,1.28v-.73Z" fill="#3fd4a2"/><path d="M9.1,35.04c-2.88.58-4.15.94-6.83,1c0-.27,0-.41.01-.68.42,0,.63-.02,1.05-.04c0-.02,0-.04,0-.06-.36-.07-.63-.21-.83-.42s-.29-.46-.29-.76.11-.55.31-.75.49-.36.85-.48c0-.02,0-.03,0-.05-.35-.11-.62-.28-.83-.51-.2-.23-.31-.51-.3-.84c0-.41.2-.74.59-.99s.98-.37,1.77-.36c1.8.02,2.66.02,4.5.06c0,.23,0,.34,0,.57-1.85,0-2.72.04-4.51.04-.5,0-.85.09-1.07.27s-.33.39-.34.64c0,.32.13.56.42.73.28.17.64.24,1.07.22c1.75-.09,2.6-.18,4.43-.33c0,.23,0,.35,0,.58-1.93.2-2.83.33-4.67.44-.38.02-.69.12-.93.29s-.36.39-.37.66c0,.18.07.34.21.49s.33.26.58.33.54.09.87.05c1.68-.2,2.52-.38,4.31-.69c0,.23,0,.34,0,.57Z" fill="#3fd4a2"/><path d="M9.11,29.13c-2.71-.21-3.94-.23-6.73-.34c0-.27,0-.41.01-.68.44.02.65.03,1.08.05c0-.02,0-.04,0-.06-.36-.11-.65-.28-.85-.5s-.3-.48-.3-.78.11-.55.33-.73c.21-.19.5-.32.87-.4c0-.02,0-.03,0-.05-.35-.15-.64-.34-.85-.59s-.32-.53-.31-.86c0-.41.21-.73.61-.95s1.01-.27,1.8-.13c1.8.32,2.63.57,4.35,1.14c0,.23,0,.34,0,.57-1.73-.52-2.57-.74-4.37-1.04-.5-.08-.86-.04-1.08.12s-.34.36-.34.61c0,.32.14.58.42.78.29.2.65.32,1.08.38c1.74.21,2.57.36,4.28.74c0,.23,0,.35,0,.58-1.82-.34-2.68-.47-4.53-.66-.38-.04-.7.02-.94.16-.24.15-.37.35-.37.62c0,.18.07.35.21.52.14.16.34.3.59.41s.54.17.87.19c1.67.1,2.48.16,4.16.34c0,.23,0,.34,0,.57Z" fill="#3fd4a2"/><path d="M9.27,22.19c0,.23-.08.41-.23.54s-.37.2-.67.21c-.29,0-.65-.05-1.06-.19-.37-.12-.67-.25-.9-.41s-.41-.34-.54-.54-.23-.4-.29-.62c-.06-.21-.11-.43-.15-.64-.05-.28-.08-.5-.1-.67s-.07-.31-.13-.4-.18-.17-.35-.21c-.01,0-.02,0-.04,0-.43-.12-.78-.11-1.03,0s-.38.33-.39.65c0,.33.1.61.32.83s.45.4.7.52c-.15.23-.22.35-.37.58-.41-.19-.75-.39-.98-.62-.24-.23-.41-.46-.5-.71-.09-.24-.14-.48-.14-.71c0-.15.03-.31.09-.5.06-.18.17-.36.35-.51.17-.15.43-.27.77-.32s.77-.01,1.31.14c1.77.52,2.56.92,4.19,1.82c0,.23,0,.34,0,.57-.34-.18-.5-.26-.84-.42c0,.01,0,.02,0,.03.14.11.28.24.43.41s.28.35.39.56c.11.2.16.41.16.62Zm-.87-.48c0-.23-.07-.46-.22-.7-.15-.23-.34-.44-.57-.63s-.49-.34-.75-.45c-.36-.15-.54-.21-.91-.34.05.05.1.12.13.23.04.11.07.23.1.36s.05.26.07.37c.02.12.03.22.05.29.03.18.08.35.15.52s.18.32.32.45.34.24.59.33c.34.12.6.14.77.05s.26-.25.26-.48Z" fill="#3fd4a2"/><path d="M9.12,19.38c-2.44-1.51-3.61-2.18-6.56-2.55c0-.27,0-.41.01-.68.46.06.69.1,1.13.2c0-.02,0-.04,0-.06-.38-.18-.67-.38-.89-.63s-.32-.51-.32-.81.12-.54.34-.7.53-.26.91-.27c0-.02,0-.03,0-.05-.37-.21-.66-.45-.89-.72-.22-.27-.34-.57-.33-.89c0-.41.23-.72.64-.88.42-.16,1.05-.12,1.84.24c1.8.82,2.58,1.48,4.11,2.93c0,.23,0,.34,0,.57-1.55-1.39-2.33-2.03-4.13-2.82-.5-.22-.87-.25-1.1-.14s-.35.3-.35.55c0,.32.14.6.44.86.29.26.66.47,1.09.64c1.74.71,2.51,1.27,4.04,2.49c0,.23,0,.35,0,.58-1.63-1.23-2.44-1.79-4.29-2.47-.38-.14-.7-.15-.95-.05s-.38.29-.39.55c0,.18.07.36.22.55s.35.37.61.53c.26.17.55.3.88.42c1.66.6,2.41,1.05,3.92,2.04c0,.23,0,.34,0,.57Z" fill="#3fd4a2"/><path d="M9.27,12.53c0,.23-.07.37-.2.42-.14.05-.33,0-.6-.13s-.59-.36-.98-.68c-.34-.28-.63-.53-.85-.79s-.4-.5-.52-.74c-.13-.24-.22-.49-.28-.72-.06-.24-.11-.47-.14-.69-.05-.29-.08-.53-.1-.71-.02-.19-.06-.34-.13-.45-.06-.12-.18-.22-.34-.32-.01,0-.02-.01-.04-.02-.43-.24-.79-.31-1.05-.24-.26.06-.4.27-.4.59c0,.33.11.62.33.89.23.27.46.49.71.68-.15.19-.22.29-.37.5-.42-.28-.77-.53-1.02-.8-.25-.26-.43-.51-.53-.77-.1-.25-.15-.5-.15-.73c0-.15.03-.31.09-.49.06-.19.19-.35.38-.49.19-.13.47-.21.82-.2s.8.14,1.33.45c1.75,1.02,2.49,1.83,3.91,3.59c0,.23,0,.34,0,.57-.3-.35-.45-.52-.76-.86c0,.01,0,.02,0,.03.12.17.25.38.39.63s.25.5.35.76c.09.26.14.49.14.71Zm-.78-.92c0-.23-.06-.5-.2-.81-.13-.3-.31-.61-.53-.91s-.45-.57-.7-.78c-.34-.3-.51-.44-.87-.7.05.06.09.16.13.28s.07.26.09.4c.03.14.05.28.07.4.02.13.03.23.04.31.03.19.08.39.15.58s.17.39.31.59c.14.19.32.39.56.58.32.27.55.41.71.41s.24-.12.24-.36Z" fill="#3fd4a2"/></g><g><path d="M16.98,32.26c-.54.04-.8.06-1.28.07c2.36-3.3,2.91-4.53,6.28-9.91.67-.35,1.01-.54,1.68-.84.5,3.75.63,6.39,1.31,11.35-.43-.2-.65-.3-1.12-.47-.39-4.19-.85-5.88-1.48-8.77-.04.02-.06.03-.1.05-2.55,4.25-3.27,5.6-5.28,8.53Zm1.21-3.27c2.27-.55,4.31-1.56,5.99-.98-.08.47-.12.7-.2,1.17-1.77-.58-3.71.25-5.97.69.07-.35.11-.52.18-.87Z" fill="#3fd4a2"/><path d="M25.63,36.53c-.19-.07-.35-.14-.5-.23-.14-.09-.24-.15-.29-.21.23-.42.3-.67.47-1.08.25.18.47.3.67.35s.38,0,.55-.13c.17-.14.35-.44.47-.79.07-.22.11-.32.17-.54-.67-3.87-1.43-5.05-1.42-9.05.21.3.29.46.54.65.21,2.89.5,4.18,1.22,6.96.02.01.03.02.05.02.42-2.26.32-3.59.66-6c.42.14.77.21,1.2.04-.54,4.32-.51,5.36-1.62,8.8-.12.39-.3.71-.52.95s-.44.34-.72.38-.59,0-.93-.13Z" fill="#3fd4a2"/><path d="M34.77,36.18c-.62-.15-1.2-.53-1.73-1.07s-.97-1.19-1.34-1.93-.64-1.53-.82-2.4c-.18-.88-.23-1.62-.22-2.19.01-.56.07-.9.14-.99s.15.09.48.16c.32.07.81.23,1.41.82s1.22,1.32,1.8,2.09c.58.76,1.09,1.53,1.53,2.36.43.82.68,1.48.71,1.99s-.14.85-.48,1.04c-.35.19-.85.27-1.47.12Zm-.45-1.14c.44.11.77,0,.95-.2s.24-.49.16-.9c-.07-.41-.25-.88-.52-1.42s-.6-1.09-.98-1.63c-.38-.55-.78-1.05-1.18-1.44-.4-.4-.75-.49-1.02-.55s-.38-.12-.42.02-.03.4.03.8.15.89.31,1.45.35,1.1.59,1.64c.25.54.54,1.02.89,1.43s.74.7,1.19.8Z" fill="#3fd4a2"/><path d="M40.01,33.3c-1.45-3.33-2.18-4.99-3.6-8.35.1-.32.14-.46.2-.77c2.5,6.27,3.83,9.34,6.34,15.61-.18-.26-.28-.44-.46-.71-.41-.96-.61-1.44-1.02-2.4-.01-.01-.02-.02-.03-.03.25.65.4,1.12.48,1.41.08.3-.02.32-.45.2-.35-.1-.74-.33-1.14-.64s-.79-.68-1.18-1.2c-.4-.52-.78-1.13-1.17-1.84-1.15-2.13-1.75-3.18-2.85-5.36.19-.17.18-.55.3-1.07c1.23,2.47,1.88,3.67,3.14,6.09.37.71.75,1.23,1.18,1.65s.82.68,1.15.7c.2.02.24-.03.22-.2s-.11-.49-.29-1c-.18-.5-.46-1.22-.84-2.1Z" fill="#3fd4a2"/><path d="M44.48,39.44c-4.09-9.24-6.24-13.76-10.24-23.08-.16-.55.52-.7,1.07-1.11c1.49,3.52,2.25,5.27,3.77,8.75.04-.03.07-.04.11-.07-.04-.37-.08-.86-.12-1.46s.01-1.21.15-1.82.46-1.11.95-1.48c.63-.48,1.32-.5,2.1-.06.77.44,1.57,1.28,2.39,2.51s1.62,2.8,2.4,4.72c.78,1.93,1.33,3.69,1.67,5.3.33,1.61.44,2.98.32,4.09s-.47,1.87-1.06,2.26c-.46.3-.91.33-1.36.1-.45-.22-.86-.54-1.22-.95s-.67-.75-.9-1.02c-.06.03-.08.04-.14.07.48,1.09.71,1.63,1.19,2.72-.45.22-.76.31-1.07.52ZM41.7,30.06c.59,1.34,1.19,2.46,1.81,3.38s1.21,1.59,1.78,1.98c.56.39,1.07.45,1.51.16.46-.3.71-.89.75-1.73.05-.84-.08-1.86-.36-3.03-.28-1.18-.69-2.42-1.22-3.72-.52-1.29-1.07-2.4-1.64-3.32s-1.14-1.58-1.7-1.96-1.07-.39-1.56-.02c-.47.35-.76.94-.86,1.74s-.02,1.77.23,2.88c.26,1.11.67,2.33,1.25,3.65Z" fill="#3fd4a2"/></g></g>
<script><![CDATA[
!function(t,n){"object"==typeof exports&&"undefined"!=typeof module?module.exports=n():"function"==typeof define&&define.amd?define(n):((t="undefined"!=typeof globalThis?globalThis:t||self).__SVGATOR_PLAYER__=t.__SVGATOR_PLAYER__||{},t.__SVGATOR_PLAYER__["5c7f360c"]=n())}(this,(function(){"use strict";function t(t,n){var e=Object.keys(t);if(Object.getOwnPropertySymbols){var r=Object.getOwnPropertySymbols(t);n&&(r=r.filter((function(n){return Object.getOwnPropertyDescriptor(t,n).enumerable}))),e.push.apply(e,r)}return e}function n(n){for(var e=1;e<arguments.length;e++){var r=null!=arguments[e]?arguments[e]:{};e%2?t(Object(r),!0).forEach((function(t){o(n,t,r[t])})):Object.getOwnPropertyDescriptors?Object.defineProperties(n,Object.getOwnPropertyDescriptors(r)):t(Object(r)).forEach((function(t){Object.defineProperty(n,t,Object.getOwnPropertyDescriptor(r,t))}))}return n}function e(t){return(e="function"==typeof Symbol&&"symbol"==typeof Symbol.iterator?function(t){return typeof t}:function(t){return t&&"function"==typeof Symbol&&t.constructor===Symbol&&t!==Symbol.prototype?"symbol":typeof t})(t)}function r(t,n){if(!(t instanceof n))throw new TypeError("Cannot call a class as a function")}function i(t,n){for(var e=0;e<n.length;e++){var r=n[e];r.enumerable=r.enumerable||!1,r.configurable=!0,"value"in r&&(r.writable=!0),Object.defineProperty(t,r.key,r)}}function u(t,n,e){return n&&i(t.prototype,n),e&&i(t,e),t}function o(t,n,e){return n in t?Object.defineProperty(t,n,{value:e,enumerable:!0,configurable:!0,writable:!0}):t[n]=e,t}function a(t){return(a=Object.setPrototypeOf?Object.getPrototypeOf:function(t){return t.__proto__||Object.getPrototypeOf(t)})(t)}function l(t,n){return(l=Object.setPrototypeOf||function(t,n){return t.__proto__=n,t})(t,n)}function s(){if("undefined"==typeof Reflect||!Reflect.construct)return!1;if(Reflect.construct.sham)return!1;if("function"==typeof Proxy)return!0;try{return Boolean.prototype.valueOf.call(Reflect.construct(Boolean,[],(function(){}))),!0}catch(t){return!1}}function f(t,n,e){return(f=s()?Reflect.construct:function(t,n,e){var r=[null];r.push.apply(r,n);var i=new(Function.bind.apply(t,r));return e&&l(i,e.prototype),i}).apply(null,arguments)}function c(t,n){if(n&&("object"==typeof n||"function"==typeof n))return n;if(void 0!==n)throw new TypeError("Derived constructors may only return object or undefined");return function(t){if(void 0===t)throw new ReferenceError("this hasn't been initialised - super() hasn't been called");return t}(t)}function h(t,n,e){return(h="undefined"!=typeof Reflect&&Reflect.get?Reflect.get:function(t,n,e){var r=function(t,n){for(;!Object.prototype.hasOwnProperty.call(t,n)&&null!==(t=a(t)););return t}(t,n);if(r){var i=Object.getOwnPropertyDescriptor(r,n);return i.get?i.get.call(e):i.value}})(t,n,e||t)}function v(t){return function(t){if(Array.isArray(t))return y(t)}(t)||function(t){if("undefined"!=typeof Symbol&&null!=t[Symbol.iterator]||null!=t["@@iterator"])return Array.from(t)}(t)||function(t,n){if(!t)return;if("string"==typeof t)return y(t,n);var e=Object.prototype.toString.call(t).slice(8,-1);"Object"===e&&t.constructor&&(e=t.constructor.name);if("Map"===e||"Set"===e)return Array.from(t);if("Arguments"===e||/^(?:Ui|I)nt(?:8|16|32)(?:Clamped)?Array$/.test(e))return y(t,n)}(t)||function(){throw new TypeError("Invalid attempt to spread non-iterable instance.\nIn order to be iterable, non-array objects must have a [Symbol.iterator]() method.")}()}function y(t,n){(null==n||n>t.length)&&(n=t.length);for(var e=0,r=new Array(n);e<n;e++)r[e]=t[e];return r}Number.isInteger||(Number.isInteger=function(t){return"number"==typeof t&&isFinite(t)&&Math.floor(t)===t}),Number.EPSILON||(Number.EPSILON=2220446049250313e-31);var g=d(Math.pow(10,-6));function d(t){var n=arguments.length>1&&void 0!==arguments[1]?arguments[1]:6;if(Number.isInteger(t))return t;var e=Math.pow(10,n);return Math.round((+t+Number.EPSILON)*e)/e}function p(t,n){var e=arguments.length>2&&void 0!==arguments[2]?arguments[2]:g;return Math.abs(t-n)<e}var m=Math.PI/180;function b(t){return t}function w(t,n,e){var r=1-e;return 3*e*r*(t*r+n*e)+e*e*e}function x(){var t=arguments.length>0&&void 0!==arguments[0]?arguments[0]:0,n=arguments.length>1&&void 0!==arguments[1]?arguments[1]:0,e=arguments.length>2&&void 0!==arguments[2]?arguments[2]:1,r=arguments.length>3&&void 0!==arguments[3]?arguments[3]:1;return t<0||t>1||e<0||e>1?null:p(t,n)&&p(e,r)?b:function(i){if(i<=0)return t>0?i*n/t:0===n&&e>0?i*r/e:0;if(i>=1)return e<1?1+(i-1)*(r-1)/(e-1):1===e&&t<1?1+(i-1)*(n-1)/(t-1):1;for(var u,o=0,a=1;o<a;){var l=w(t,e,u=(o+a)/2);if(p(i,l))break;l<i?o=u:a=u}return w(n,r,u)}}function A(){return 1}function k(t){return 1===t?1:0}function _(){var t=arguments.length>0&&void 0!==arguments[0]?arguments[0]:1,n=arguments.length>1&&void 0!==arguments[1]?arguments[1]:0;if(1===t){if(0===n)return k;if(1===n)return A}var e=1/t;return function(t){return t>=1?1:(t+=n*e)-t%e}}var S=Math.sin,O=Math.cos,j=Math.acos,M=Math.asin,P=Math.tan,E=Math.atan2,I=Math.PI/180,R=180/Math.PI,F=Math.sqrt,N=function(){function t(){var n=arguments.length>0&&void 0!==arguments[0]?arguments[0]:1,e=arguments.length>1&&void 0!==arguments[1]?arguments[1]:0,i=arguments.length>2&&void 0!==arguments[2]?arguments[2]:0,u=arguments.length>3&&void 0!==arguments[3]?arguments[3]:1,o=arguments.length>4&&void 0!==arguments[4]?arguments[4]:0,a=arguments.length>5&&void 0!==arguments[5]?arguments[5]:0;r(this,t),this.m=[n,e,i,u,o,a],this.i=null,this.w=null,this.s=null}return u(t,[{key:"determinant",get:function(){var t=this.m;return t[0]*t[3]-t[1]*t[2]}},{key:"isIdentity",get:function(){if(null===this.i){var t=this.m;this.i=1===t[0]&&0===t[1]&&0===t[2]&&1===t[3]&&0===t[4]&&0===t[5]}return this.i}},{key:"point",value:function(t,n){var e=this.m;return{x:e[0]*t+e[2]*n+e[4],y:e[1]*t+e[3]*n+e[5]}}},{key:"translateSelf",value:function(){var t=arguments.length>0&&void 0!==arguments[0]?arguments[0]:0,n=arguments.length>1&&void 0!==arguments[1]?arguments[1]:0;if(!t&&!n)return this;var e=this.m;return e[4]+=e[0]*t+e[2]*n,e[5]+=e[1]*t+e[3]*n,this.w=this.s=this.i=null,this}},{key:"rotateSelf",value:function(){var t=arguments.length>0&&void 0!==arguments[0]?arguments[0]:0;if(t%=360){var n=S(t*=I),e=O(t),r=this.m,i=r[0],u=r[1];r[0]=i*e+r[2]*n,r[1]=u*e+r[3]*n,r[2]=r[2]*e-i*n,r[3]=r[3]*e-u*n,this.w=this.s=this.i=null}return this}},{key:"scaleSelf",value:function(){var t=arguments.length>0&&void 0!==arguments[0]?arguments[0]:1,n=arguments.length>1&&void 0!==arguments[1]?arguments[1]:1;if(1!==t||1!==n){var e=this.m;e[0]*=t,e[1]*=t,e[2]*=n,e[3]*=n,this.w=this.s=this.i=null}return this}},{key:"skewSelf",value:function(t,n){if(n%=360,(t%=360)||n){var e=this.m,r=e[0],i=e[1],u=e[2],o=e[3];t&&(t=P(t*I),e[2]+=r*t,e[3]+=i*t),n&&(n=P(n*I),e[0]+=u*n,e[1]+=o*n),this.w=this.s=this.i=null}return this}},{key:"resetSelf",value:function(){var t=arguments.length>0&&void 0!==arguments[0]?arguments[0]:1,n=arguments.length>1&&void 0!==arguments[1]?arguments[1]:0,e=arguments.length>2&&void 0!==arguments[2]?arguments[2]:0,r=arguments.length>3&&void 0!==arguments[3]?arguments[3]:1,i=arguments.length>4&&void 0!==arguments[4]?arguments[4]:0,u=arguments.length>5&&void 0!==arguments[5]?arguments[5]:0,o=this.m;return o[0]=t,o[1]=n,o[2]=e,o[3]=r,o[4]=i,o[5]=u,this.w=this.s=this.i=null,this}},{key:"recomposeSelf",value:function(){var t=arguments.length>0&&void 0!==arguments[0]?arguments[0]:null,n=arguments.length>1&&void 0!==arguments[1]?arguments[1]:null,e=arguments.length>2&&void 0!==arguments[2]?arguments[2]:null,r=arguments.length>3&&void 0!==arguments[3]?arguments[3]:null,i=arguments.length>4&&void 0!==arguments[4]?arguments[4]:null;return this.isIdentity||this.resetSelf(),t&&(t.x||t.y)&&this.translateSelf(t.x,t.y),n&&this.rotateSelf(n),e&&(e.x&&this.skewSelf(e.x,0),e.y&&this.skewSelf(0,e.y)),!r||1===r.x&&1===r.y||this.scaleSelf(r.x,r.y),i&&(i.x||i.y)&&this.translateSelf(i.x,i.y),this}},{key:"decompose",value:function(){var t=arguments.length>0&&void 0!==arguments[0]?arguments[0]:0,n=arguments.length>1&&void 0!==arguments[1]?arguments[1]:0,e=this.m,r=e[0]*e[0]+e[1]*e[1],i=[[e[0],e[1]],[e[2],e[3]]],u=F(r);if(0===u)return{origin:{x:d(e[4]),y:d(e[5])},translate:{x:d(t),y:d(n)},scale:{x:0,y:0},skew:{x:0,y:0},rotate:0};i[0][0]/=u,i[0][1]/=u;var o=e[0]*e[3]-e[1]*e[2]<0;o&&(u=-u);var a=i[0][0]*i[1][0]+i[0][1]*i[1][1];i[1][0]-=i[0][0]*a,i[1][1]-=i[0][1]*a;var l=F(i[1][0]*i[1][0]+i[1][1]*i[1][1]);if(0===l)return{origin:{x:d(e[4]),y:d(e[5])},translate:{x:d(t),y:d(n)},scale:{x:d(u),y:0},skew:{x:0,y:0},rotate:0};i[1][0]/=l,i[1][1]/=l,a/=l;var s=0;return i[1][1]<0?(s=j(i[1][1])*R,i[0][1]<0&&(s=360-s)):s=M(i[0][1])*R,o&&(s=-s),a=E(a,F(i[0][0]*i[0][0]+i[0][1]*i[0][1]))*R,o&&(a=-a),{origin:{x:d(e[4]),y:d(e[5])},translate:{x:d(t),y:d(n)},scale:{x:d(u),y:d(l)},skew:{x:d(a),y:0},rotate:d(s)}}},{key:"clone",value:function(){var t=this.m;return new this.constructor(t[0],t[1],t[2],t[3],t[4],t[5])}},{key:"toString",value:function(){var t=arguments.length>0&&void 0!==arguments[0]?arguments[0]:" ";if(null===this.s){var n=this.m.map((function(t){return d(t)}));1===n[0]&&0===n[1]&&0===n[2]&&1===n[3]?this.s="translate("+n[4]+t+n[5]+")":this.s="matrix("+n.join(t)+")"}return this.s}}],[{key:"create",value:function(t){return t?Array.isArray(t)?f(this,v(t)):t instanceof this?t.clone():(new this).recomposeSelf(t.origin,t.rotate,t.skew,t.scale,t.translate):new this}}]),t}();function T(t,n,e){return t>=.5?e:n}function q(t,n,e){return 0===t||n===e?n:t*(e-n)+n}function B(t,n,e){var r=q(t,n,e);return r<=0?0:r}function L(t,n,e){var r=q(t,n,e);return r<=0?0:r>=1?1:r}function C(t,n,e){return 0===t?n:1===t?e:{x:q(t,n.x,e.x),y:q(t,n.y,e.y)}}function D(t,n,e){var r=function(t,n,e){return Math.round(q(t,n,e))}(t,n,e);return r<=0?0:r>=255?255:r}function z(t,n,e){return 0===t?n:1===t?e:{r:D(t,n.r,e.r),g:D(t,n.g,e.g),b:D(t,n.b,e.b),a:q(t,null==n.a?1:n.a,null==e.a?1:e.a)}}function V(t,n){for(var e=[],r=0;r<t;r++)e.push(n);return e}function G(t,n){if(--n<=0)return t;var e=(t=Object.assign([],t)).length;do{for(var r=0;r<e;r++)t.push(t[r])}while(--n>0);return t}var Y,$=function(){function t(n){r(this,t),this.list=n,this.length=n.length}return u(t,[{key:"setAttribute",value:function(t,n){for(var e=this.list,r=0;r<this.length;r++)e[r].setAttribute(t,n)}},{key:"removeAttribute",value:function(t){for(var n=this.list,e=0;e<this.length;e++)n[e].removeAttribute(t)}},{key:"style",value:function(t,n){for(var e=this.list,r=0;r<this.length;r++)e[r].style[t]=n}}]),t}(),U=/-./g,Q=function(t,n){return n.toUpperCase()};function H(t){return"function"==typeof t?t:T}function J(t){return t?"function"==typeof t?t:Array.isArray(t)?function(t){var n=arguments.length>1&&void 0!==arguments[1]?arguments[1]:b;if(!Array.isArray(t))return n;switch(t.length){case 1:return _(t[0])||n;case 2:return _(t[0],t[1])||n;case 4:return x(t[0],t[1],t[2],t[3])||n}return n}(t,null):function(t,n){var e=arguments.length>2&&void 0!==arguments[2]?arguments[2]:b;switch(t){case"linear":return b;case"steps":return _(n.steps||1,n.jump||0)||e;case"bezier":case"cubic-bezier":return x(n.x1||0,n.y1||0,n.x2||0,n.y2||0)||e}return e}(t.type,t.value,null):null}function Z(t,n,e){var r=arguments.length>3&&void 0!==arguments[3]&&arguments[3],i=n.length-1;if(t<=n[0].t)return r?[0,0,n[0].v]:n[0].v;if(t>=n[i].t)return r?[i,1,n[i].v]:n[i].v;var u,o=n[0],a=null;for(u=1;u<=i;u++){if(!(t>n[u].t)){a=n[u];break}o=n[u]}return null==a?r?[i,1,n[i].v]:n[i].v:o.t===a.t?r?[u,1,a.v]:a.v:(t=(t-o.t)/(a.t-o.t),o.e&&(t=o.e(t)),r?[u,t,e(t,o.v,a.v)]:e(t,o.v,a.v))}function K(t,n){var e=arguments.length>2&&void 0!==arguments[2]?arguments[2]:null;return t&&t.length?"function"!=typeof n?null:("function"!=typeof e&&(e=null),function(r){var i=Z(r,t,n);return null!=i&&e&&(i=e(i)),i}):null}function W(t,n){return t.t-n.t}function X(t,n,r,i,u){var o,a="@"===r[0],l="#"===r[0],s=Y[r],f=T;switch(a?(o=r.substr(1),r=o.replace(U,Q)):l&&(r=r.substr(1)),e(s)){case"function":if(f=s(i,u,Z,J,r,a,n,t),l)return f;break;case"string":f=K(i,H(s));break;case"object":if((f=K(i,H(s.i),s.f))&&"function"==typeof s.u)return s.u(n,f,r,a,t)}return f?function(t,n,e){if(arguments.length>3&&void 0!==arguments[3]&&arguments[3])return t instanceof $?function(r){return t.style(n,e(r))}:function(r){return t.style[n]=e(r)};if(Array.isArray(n)){var r=n.length;return function(i){var u=e(i);if(null==u)for(var o=0;o<r;o++)t[o].removeAttribute(n);else for(var a=0;a<r;a++)t[a].setAttribute(n,u)}}return function(r){var i=e(r);null==i?t.removeAttribute(n):t.setAttribute(n,i)}}(n,r,f,a):null}function tt(t,n,r,i){if(!i||"object"!==e(i))return null;var u=null,o=null;return Array.isArray(i)?o=function(t){if(!t||!t.length)return null;for(var n=0;n<t.length;n++)t[n].e&&(t[n].e=J(t[n].e));return t.sort(W)}(i):(o=i.keys,u=i.data||null),o?X(t,n,r,o,u):null}function nt(t,n,e){if(!e)return null;var r=[];for(var i in e)if(e.hasOwnProperty(i)){var u=tt(t,n,i,e[i]);u&&r.push(u)}return r.length?r:null}function et(t,n){if(!n.settings.duration||n.settings.duration<0)return null;var e,r,i,u,o,a=function(t,n){if(!n)return null;var e=[];if(Array.isArray(n))for(var r=n.length,i=0;i<r;i++){var u=n[i];if(2===u.length){var o=null;if("string"==typeof u[0])o=t.getElementById(u[0]);else if(Array.isArray(u[0])){o=[];for(var a=0;a<u[0].length;a++)if("string"==typeof u[0][a]){var l=t.getElementById(u[0][a]);l&&o.push(l)}o=o.length?1===o.length?o[0]:new $(o):null}if(o){var s=nt(t,o,u[1]);s&&(e=e.concat(s))}}}else for(var f in n)if(n.hasOwnProperty(f)){var c=t.getElementById(f);if(c){var h=nt(t,c,n[f]);h&&(e=e.concat(h))}}return e.length?e:null}(t,n.elements);return a?(e=a,r=n.settings,i=r.duration,u=e.length,o=null,function(t,n){var a=r.iterations||1/0,l=(r.alternate&&a%2==0)^r.direction>0?i:0,s=t%i,f=1+(t-s)/i;n*=r.direction,r.alternate&&f%2==0&&(n=-n);var c=!1;if(f>a)s=l,c=!0,-1===r.fill&&(s=r.direction>0?0:i);else if(n<0&&(s=i-s),s===o)return!1;o=s;for(var h=0;h<u;h++)e[h](s);return c}):null}function rt(t,n){if(Y=n,!t||!t.root||!Array.isArray(t.animations))return null;var e=function(t){for(var n=document.getElementsByTagName("svg"),e=0;e<n.length;e++)if(n[e].id===t.root&&!n[e].svgatorAnimation)return n[e].svgatorAnimation=!0,n[e];return null}(t);if(!e)return null;var r=t.animations.map((function(t){return et(e,t)})).filter((function(t){return!!t}));return r.length?{svg:e,animations:r,animationSettings:t.animationSettings,options:t.options||void 0}:null}function it(t){return+("0x"+(t.replace(/[^0-9a-fA-F]+/g,"")||27))}function ut(t,n,e){return!t||!e||n>t.length?t:t.substring(0,n)+ut(t.substring(n+1),e,e)}function ot(t){var n=arguments.length>1&&void 0!==arguments[1]?arguments[1]:27;return!t||t%n?t%n:ot(t/n,n)}function at(t,n,e){if(t&&t.length){var r=it(e),i=it(n),u=ot(r)+5,o=ut(t,ot(r,5),u);return o=o.replace(/\x7c$/g,"==").replace(/\x2f$/g,"="),o=function(t,n,e){var r=+("0x"+t.substring(0,4));t=t.substring(4);for(var i=n%r+e%27,u=[],o=0;o<t.length;o+=2)if("|"!==t[o]){var a=+("0x"+t[o]+t[o+1])-i;u.push(a)}else{var l=+("0x"+t.substring(o+1,o+1+4))-i;o+=3,u.push(l)}return String.fromCharCode.apply(String,u)}(o=(o=atob(o)).replace(/[\x41-\x5A]/g,""),i,r),o=JSON.parse(o)}}var lt=[{key:"alternate",def:!1},{key:"fill",def:1},{key:"iterations",def:0},{key:"direction",def:1},{key:"speed",def:1},{key:"fps",def:100}],st=function(){function t(n,e){var i=this,u=arguments.length>2&&void 0!==arguments[2]?arguments[2]:null;r(this,t),this._id=0,this._running=!1,this._rollingBack=!1,this._animations=n,this._settings=e,(!u||u<"2022-05-02")&&delete this._settings.speed,lt.forEach((function(t){i._settings[t.key]=i._settings[t.key]||t.def})),this.duration=e.duration,this.offset=e.offset||0,this.rollbackStartOffset=0}return u(t,[{key:"alternate",get:function(){return this._settings.alternate}},{key:"fill",get:function(){return this._settings.fill}},{key:"iterations",get:function(){return this._settings.iterations}},{key:"direction",get:function(){return this._settings.direction}},{key:"speed",get:function(){return this._settings.speed}},{key:"fps",get:function(){return this._settings.fps}},{key:"maxFiniteDuration",get:function(){return this.iterations>0?this.iterations*this.duration:this.duration}},{key:"_apply",value:function(t){for(var n=arguments.length>1&&void 0!==arguments[1]?arguments[1]:{},e=this._animations,r=e.length,i=0,u=0;u<r;u++)n[u]?i++:(n[u]=e[u](t,1),n[u]&&i++);return i}},{key:"_rollback",value:function(t){var n=this,e=1/0,r=null;this.rollbackStartOffset=t,this._rollingBack=!0,this._running=!0;this._id=window.requestAnimationFrame((function i(u){if(n._rollingBack){null==r&&(r=u);var o=Math.round(t-(u-r)*n.speed);if(o>n.duration&&e!==1/0){var a=!!n.alternate&&o/n.duration%2>1,l=o%n.duration;o=(l+=a?n.duration:0)||n.duration}var s=(n.fps?1e3/n.fps:0)*n.speed,f=Math.max(0,o);f<=e-s&&(n.offset=f,e=f,n._apply(f));var c=n.iterations>0&&-1===n.fill&&o>=n.maxFiniteDuration;(o<=0||n.offset<o||c)&&n.stop(),n._id=window.requestAnimationFrame(i)}}))}},{key:"_start",value:function(){var t=this,n=arguments.length>0&&void 0!==arguments[0]?arguments[0]:0,e=-1/0,r=null,i={};this._running=!0;var u=function u(o){null==r&&(r=o);var a=Math.round((o-r)*t.speed+n),l=(t.fps?1e3/t.fps:0)*t.speed;if(a>=e+l&&!t._rollingBack&&(t.offset=a,e=a,t._apply(a,i)===t._animations.length))return void t.pause(!0);t._id=window.requestAnimationFrame(u)};this._id=window.requestAnimationFrame(u)}},{key:"_pause",value:function(){this._id&&window.cancelAnimationFrame(this._id),this._running=!1}},{key:"play",value:function(){if(!this._running)return this._rollingBack?this._rollback(this.offset):this._start(this.offset)}},{key:"stop",value:function(){this._pause(),this.offset=0,this.rollbackStartOffset=0,this._rollingBack=!1,this._apply(0)}},{key:"reachedToEnd",value:function(){return this.iterations>0&&this.offset>=this.iterations*this.duration}},{key:"restart",value:function(){var t=arguments.length>0&&void 0!==arguments[0]&&arguments[0];this.stop(t),this.play(t)}},{key:"pause",value:function(){this._pause()}},{key:"reverse",value:function(){this.direction=-this.direction}}],[{key:"build",value:function(t,n){delete t.animationSettings,t.options=at(t.options,t.root,"5c7f360c"),t.animations.map((function(n){n.settings=at(n.s,t.root,"5c7f360c"),delete n.s,t.animationSettings||(t.animationSettings=n.settings)}));var e=t.version;if(!(t=rt(t,n)))return null;var r=t.options||{},i=new this(t.animations,t.animationSettings,e);return{el:t.svg,options:r,player:i}}},{key:"push",value:function(t){return this.build(t)}},{key:"init",value:function(){var t=this,n=window.__SVGATOR_PLAYER__&&window.__SVGATOR_PLAYER__["5c7f360c"];Array.isArray(n)&&n.splice(0).forEach((function(n){return t.build(n)}))}}]),t}();function ft(t){return d(t)+""}function ct(t){var n=arguments.length>1&&void 0!==arguments[1]?arguments[1]:" ";return t&&t.length?t.map(ft).join(n):""}function ht(t){if(!t)return"transparent";if(null==t.a||t.a>=1){var n=function(t){return 1===(t=parseInt(t).toString(16)).length?"0"+t:t},e=function(t){return t.charAt(0)===t.charAt(1)},r=n(t.r),i=n(t.g),u=n(t.b);return e(r)&&e(i)&&e(u)&&(r=r.charAt(0),i=i.charAt(0),u=u.charAt(0)),"#"+r+i+u}return"rgba("+t.r+","+t.g+","+t.b+","+t.a+")"}function vt(t){return t?"url(#"+t+")":"none"}!function(){for(var t=0,n=["ms","moz","webkit","o"],e=0;e<n.length&&!window.requestAnimationFrame;++e)window.requestAnimationFrame=window[n[e]+"RequestAnimationFrame"],window.cancelAnimationFrame=window[n[e]+"CancelAnimationFrame"]||window[n[e]+"CancelRequestAnimationFrame"];window.requestAnimationFrame||(window.requestAnimationFrame=function(n){var e=Date.now(),r=Math.max(0,16-(e-t)),i=window.setTimeout((function(){n(e+r)}),r);return t=e+r,i},window.cancelAnimationFrame=window.clearTimeout)}();var yt={f:null,i:function(t,n,e){return 0===t?n:1===t?e:{x:B(t,n.x,e.x),y:B(t,n.y,e.y)}},u:function(t,n){return function(e){var r=n(e);t.setAttribute("rx",ft(r.x)),t.setAttribute("ry",ft(r.y))}}},gt={f:null,i:function(t,n,e){return 0===t?n:1===t?e:{width:B(t,n.width,e.width),height:B(t,n.height,e.height)}},u:function(t,n){return function(e){var r=n(e);t.setAttribute("width",ft(r.width)),t.setAttribute("height",ft(r.height))}}};Object.freeze({M:2,L:2,Z:0,H:1,V:1,C:6,Q:4,T:2,S:4,A:7});var dt={},pt=null;function mt(t){var n=function(){if(pt)return pt;if("object"!==("undefined"==typeof document?"undefined":e(document))||!document.createElementNS)return{};var t=document.createElementNS("http://www.w3.org/2000/svg","svg");return t&&t.style?(t.style.position="absolute",t.style.opacity="0.01",t.style.zIndex="-9999",t.style.left="-9999px",t.style.width="1px",t.style.height="1px",pt={svg:t}):{}}().svg;if(!n)return function(t){return null};var r=document.createElementNS(n.namespaceURI,"path");r.setAttributeNS(null,"d",t),r.setAttributeNS(null,"fill","none"),r.setAttributeNS(null,"stroke","none"),n.appendChild(r);var i=r.getTotalLength();return function(t){var n=r.getPointAtLength(i*t);return{x:n.x,y:n.y}}}function bt(t){return dt[t]?dt[t]:dt[t]=mt(t)}function wt(t,n,e,r){if(!t||!r)return!1;var i=["M",t.x,t.y];if(n&&e&&(i.push("C"),i.push(n.x),i.push(n.y),i.push(e.x),i.push(e.y)),n?!e:e){var u=n||e;i.push("Q"),i.push(u.x),i.push(u.y)}return n||e||i.push("L"),i.push(r.x),i.push(r.y),i.join(" ")}function xt(t,n,e,r){var i=arguments.length>4&&void 0!==arguments[4]?arguments[4]:1,u=wt(t,n,e,r),o=bt(u);try{return o(i)}catch(t){return null}}function At(t,n,e){return t+(n-t)*e}function kt(t,n,e){var r=arguments.length>3&&void 0!==arguments[3]&&arguments[3],i={x:At(t.x,n.x,e),y:At(t.y,n.y,e)};return r&&(i.a=_t(t,n)),i}function _t(t,n){return Math.atan2(n.y-t.y,n.x-t.x)}function St(t,n,e,r){var i=1-r;return i*i*t+2*i*r*n+r*r*e}function Ot(t,n,e,r){return 2*(1-r)*(n-t)+2*r*(e-n)}function jt(t,n,e,r){var i=arguments.length>4&&void 0!==arguments[4]&&arguments[4],u=xt(t,n,null,e,r);return u||(u={x:St(t.x,n.x,e.x,r),y:St(t.y,n.y,e.y,r)}),i&&(u.a=Mt(t,n,e,r)),u}function Mt(t,n,e,r){return Math.atan2(Ot(t.y,n.y,e.y,r),Ot(t.x,n.x,e.x,r))}function Pt(t,n,e,r,i){var u=i*i;return i*u*(r-t+3*(n-e))+3*u*(t+e-2*n)+3*i*(n-t)+t}function Et(t,n,e,r,i){var u=1-i;return 3*(u*u*(n-t)+2*u*i*(e-n)+i*i*(r-e))}function It(t,n,e,r,i){var u=arguments.length>5&&void 0!==arguments[5]&&arguments[5],o=xt(t,n,e,r,i);return o||(o={x:Pt(t.x,n.x,e.x,r.x,i),y:Pt(t.y,n.y,e.y,r.y,i)}),u&&(o.a=Rt(t,n,e,r,i)),o}function Rt(t,n,e,r,i){return Math.atan2(Et(t.y,n.y,e.y,r.y,i),Et(t.x,n.x,e.x,r.x,i))}function Ft(t,n,e){var r=arguments.length>3&&void 0!==arguments[3]&&arguments[3];if(Tt(n)){if(qt(e))return jt(n,e.start,e,t,r)}else if(Tt(e)){if(Bt(n))return jt(n,n.end,e,t,r)}else{if(Bt(n))return qt(e)?It(n,n.end,e.start,e,t,r):jt(n,n.end,e,t,r);if(qt(e))return jt(n,e.start,e,t,r)}return kt(n,e,t,r)}function Nt(t,n,e){var r=Ft(t,n,e,!0);return r.a=function(t){return arguments.length>1&&void 0!==arguments[1]&&arguments[1]?t+Math.PI:t}(r.a)/m,r}function Tt(t){return!t.type||"corner"===t.type}function qt(t){return null!=t.start&&!Tt(t)}function Bt(t){return null!=t.end&&!Tt(t)}var Lt=new N;var Ct={f:ft,i:q},Dt={f:ft,i:L};function zt(t,n,e){return t.map((function(t){return function(t,n,e){var r=t.v;if(!r||"g"!==r.t||r.s||!r.v||!r.r)return t;var i=e.getElementById(r.r),u=i&&i.querySelectorAll("stop")||[];return r.s=r.v.map((function(t,n){var e=u[n]&&u[n].getAttribute("offset");return{c:t,o:e=d(parseInt(e)/100)}})),delete r.v,t}(t,0,e)}))}var Vt={gt:"gradientTransform",c:{x:"cx",y:"cy"},rd:"r",f:{x:"x1",y:"y1"},to:{x:"x2",y:"y2"}};function Gt(t,n,r,i,u,o,a,l){return zt(t,0,l),n=function(t,n,e){for(var r,i,u,o=t.length-1,a={},l=0;l<=o;l++)(r=t[l]).e&&(r.e=n(r.e)),r.v&&"g"===(i=r.v).t&&i.r&&(u=e.getElementById(i.r))&&(a[i.r]={e:u,s:u.querySelectorAll("stop")});return a}(t,i,l),function(i){var u=r(i,t,Yt);if(!u)return"none";if("c"===u.t)return ht(u.v);if("g"===u.t){if(!n[u.r])return vt(u.r);var o=n[u.r];return function(t,n){for(var e=t.s,r=e.length;r<n.length;r++){var i=e[e.length-1].cloneNode();i.id=Qt(i.id),t.e.appendChild(i),e=t.s=t.e.querySelectorAll("stop")}for(var u=0,o=e.length,a=n.length-1;u<o;u++)e[u].setAttribute("stop-color",ht(n[Math.min(u,a)].c)),e[u].setAttribute("offset",n[Math.min(u,a)].o)}(o,u.s),Object.keys(Vt).forEach((function(t){if(void 0!==u[t])if("object"!==e(Vt[t])){var n,r="gt"===t?(n=u[t],Array.isArray(n)?"matrix("+n.join(" ")+")":""):u[t],i=Vt[t];o.e.setAttribute(i,r)}else Object.keys(Vt[t]).forEach((function(n){if(void 0!==u[t][n]){var e=u[t][n],r=Vt[t][n];o.e.setAttribute(r,e)}}))})),vt(u.r)}return"none"}}function Yt(t,e,r){if(0===t)return e;if(1===t)return r;if(e&&r){var i=e.t;if(i===r.t)switch(e.t){case"c":return{t:i,v:z(t,e.v,r.v)};case"g":if(e.r===r.r){var u={t:i,s:$t(t,e.s,r.s),r:e.r};return e.gt&&r.gt&&(u.gt=function(t,n,e){var r=n.length;if(r!==e.length)return T(t,n,e);for(var i=new Array(r),u=0;u<r;u++)i[u]=q(t,n[u],e[u]);return i}(t,e.gt,r.gt)),e.c?(u.c=C(t,e.c,r.c),u.rd=B(t,e.rd,r.rd)):e.f&&(u.f=C(t,e.f,r.f),u.to=C(t,e.to,r.to)),u}}if("c"===e.t&&"g"===r.t||"c"===r.t&&"g"===e.t){var o="c"===e.t?e:r,a="g"===e.t?n({},e):n({},r),l=a.s.map((function(t){return{c:o.v,o:t.o}}));return a.s="c"===e.t?$t(t,l,a.s):$t(t,a.s,l),a}}return T(t,e,r)}function $t(t,n,e){if(n.length===e.length)return n.map((function(n,r){return Ut(t,n,e[r])}));for(var r=Math.max(n.length,e.length),i=[],u=0;u<r;u++){var o=Ut(t,n[Math.min(u,n.length-1)],e[Math.min(u,e.length-1)]);i.push(o)}return i}function Ut(t,n,e){return{o:L(t,n.o,e.o||0),c:z(t,n.c,e.c||{})}}function Qt(t){return t.replace(/-fill-([0-9]+)$/,(function(t,n){return"-fill-"+(+n+1)}))}var Ht={fill:Gt,"fill-opacity":Dt,stroke:Gt,"stroke-opacity":Dt,"stroke-width":Ct,"stroke-dashoffset":{f:ft,i:q},"stroke-dasharray":{f:function(t){var n=arguments.length>1&&void 0!==arguments[1]?arguments[1]:" ";return t&&t.length>0&&(t=t.map((function(t){return d(t,4)}))),ct(t,n)},i:function(t,n,e){var r,i,u,o=n.length,a=e.length;if(o!==a)if(0===o)n=V(o=a,0);else if(0===a)a=o,e=V(o,0);else{var l=(u=(r=o)*(i=a)/function(t,n){for(var e;n;)e=n,n=t%n,t=e;return t||1}(r,i))<0?-u:u;n=G(n,Math.floor(l/o)),e=G(e,Math.floor(l/a)),o=a=l}for(var s=[],f=0;f<o;f++)s.push(d(B(t,n[f],e[f])));return s}},opacity:Dt,transform:function(t,n,r,i){if(!(t=function(t,n){if(!t||"object"!==e(t))return null;var r=!1;for(var i in t)t.hasOwnProperty(i)&&(t[i]&&t[i].length?(t[i].forEach((function(t){t.e&&(t.e=n(t.e))})),r=!0):delete t[i]);return r?t:null}(t,i)))return null;var u=function(e,i,u){var o=arguments.length>3&&void 0!==arguments[3]?arguments[3]:null;return t[e]?r(i,t[e],u):n&&n[e]?n[e]:o};return n&&n.a&&t.o?function(n){var e=r(n,t.o,Nt);return Lt.recomposeSelf(e,u("r",n,q,0)+e.a,u("k",n,C),u("s",n,C),u("t",n,C)).toString()}:function(t){return Lt.recomposeSelf(u("o",t,Ft,null),u("r",t,q,0),u("k",t,C),u("s",t,C),u("t",t,C)).toString()}},r:Ct,"#size":gt,"#radius":yt,_:function(t,n){if(Array.isArray(t))for(var e=0;e<t.length;e++)this[t[e]]=n;else this[t]=n}},Jt=function(t){!function(t,n){if("function"!=typeof n&&null!==n)throw new TypeError("Super expression must either be null or a function");t.prototype=Object.create(n&&n.prototype,{constructor:{value:t,writable:!0,configurable:!0}}),n&&l(t,n)}(o,t);var n,e,i=(n=o,e=s(),function(){var t,r=a(n);if(e){var i=a(this).constructor;t=Reflect.construct(r,arguments,i)}else t=r.apply(this,arguments);return c(this,t)});function o(){return r(this,o),i.apply(this,arguments)}return u(o,null,[{key:"build",value:function(t){var n=h(a(o),"build",this).call(this,t,Ht);if(!n)return null;n.el,n.options,function(t,n,e){t.play()}(n.player)}}]),o}(st);return Jt.init(),Jt}));
(function(s,i,o,w,a,b){w[o]=w[o]||{};w[o][s]=w[o][s]||[];w[o][s].push(i);})('5c7f360c',{"root":"ekSm5IcC1yw1","version":"2022-05-04","animations":[{"elements":{"ekSm5IcC1yw3":{"transform":{"data":{"t":{"x":-4.62,"y":-43.99}},"keys":{"o":[{"t":0,"v":{"x":4.62,"y":43.99,"type":"corner"}},{"t":4000,"v":{"x":2.61,"y":44.61,"type":"corner"}},{"t":9000,"v":{"x":4.62,"y":43.99,"type":"corner"}}]}}},"ekSm5IcC1yw4":{"transform":{"data":{"t":{"x":-5.465,"y":-4.89}},"keys":{"o":[{"t":0,"v":{"x":5.465,"y":4.89,"type":"corner"}},{"t":4000,"v":{"x":7.075,"y":5.263243,"type":"corner"}},{"t":9000,"v":{"x":5.465,"y":4.89,"type":"corner"}}]}}},"ekSm5IcC1yw5":{"transform":{"data":{"t":{"x":-48.014999,"y":-39.710003}},"keys":{"o":[{"t":0,"v":{"x":48.014999,"y":39.710003,"type":"corner"}},{"t":4000,"v":{"x":49.095988,"y":39.710003,"type":"corner"}},{"t":9000,"v":{"x":48.014999,"y":39.710003,"type":"corner"}}]}}},"ekSm5IcC1yw6":{"transform":{"data":{"t":{"x":-31.655001,"y":-12.559999}},"keys":{"o":[{"t":0,"v":{"x":31.655001,"y":12.559999,"type":"corner"}},{"t":4000,"v":{"x":32.92599,"y":12.289999,"type":"corner"}},{"t":9000,"v":{"x":31.655001,"y":12.559999,"type":"corner"}}]}}},"ekSm5IcC1yw7":{"transform":{"data":{"t":{"x":-19.37348,"y":-41.81122}},"keys":{"o":[{"t":0,"v":{"x":19.37348,"y":41.81122,"type":"corner"}},{"t":4000,"v":{"x":21.28348,"y":43.919037,"type":"corner"}},{"t":9000,"v":{"x":19.37348,"y":41.81122,"type":"corner"}}]}}}},"s":"MLDA1ZGE1SjRjOGU5ZlMM5YzhiOWVUOTM5OTkA4NGM2NDYzNWE1YTVhXNTY0YzhlOTM5YzhmONGQ5ZTkzOTk5ODRjNjXRONWI1NjRjOTM5ZThYmOWM4YjllOTM5OTk4ORjlkNGM2NDVhNTY0YAzkwOTM5Njk2NGM2NDEViNTY0YzhiOTY5ZThGmOWM5ODhiOWU4ZjRjTNjQ5MDhiOTY5ZDhmNXTY0YzlkOWE4ZjhmOGJU0YzY0NWI1NjRjOTAS5YTlkNGM2NDViNWE1VYWE3"}],"options":"MKDAxMDg4MmY4MDgxNmJU3Zks4MTJmNDcyZjcM5N2M2ZTcxMmY4YQ|"},'__SVGATOR_PLAYER__',window)
]]></script>
</svg>
