<?xml version="1.0" encoding="UTF-8"?>
<svg id="Layer_2" data-name="Layer 2" xmlns="http://www.w3.org/2000/svg" width="52.32" height="50.76" viewBox="0 0 52.32 50.76">
  <defs>
    <style>
      .cls-1 {
        fill: #3fd4a2;
      }

      .cls-2 {
        fill: #0112ad;
        stroke: #3fd4a2;
        stroke-miterlimit: 10;
        stroke-width: .55px;
      }
    </style>
  </defs>
  <g id="Layer_2-2" data-name="Layer 2">
    <path class="cls-1" d="M.13,39.17v5.33c0,1.87,.43,3.28,1.29,4.22,.86,.95,1.96,1.42,3.29,1.42s2.52-.47,3.38-1.4c.86-.93,1.29-2.35,1.29-4.24v-6.66c-3.33,.92-6.22,1.77-9.26,1.33Z"/>
    <path class="cls-2" d="M2.32,4.79c2.98,.31,5.18,2.29,7.17,4.79v-3.47c0-1.89-.43-3.3-1.29-4.22-.86-.92-1.99-1.39-3.38-1.39S2.37,.97,1.52,1.9C.88,2.61,.48,3.59,.32,4.83c.68-.09,1.35-.11,2-.04Z"/>
    <path class="cls-1" d="M45.56,41.12c-.55,.15-1.07,.24-1.59,.29,.23,.43,.45,.79,.66,1.06,.35,.45,.79,.8,1.31,1.06,.52,.26,1.14,.39,1.87,.39,1.25,0,2.31-.44,3.19-1.32,.88-.88,1.32-1.85,1.32-2.91,0-.57-1.17-3.23-1.47-4.19-.48,3.02-3.08,5.05-5.3,5.64Z"/>
    <path class="cls-2" d="M29.31,24.84l3.35-14.81,1.22,4.62c5.5-3.64,2.5,3.17,9.9,2.41l-3.23-8.87c-.35-.76-.81-1.93-1.18-2.82-.36-.88-.81-1.71-1.34-2.48-.53-.77-1.23-1.4-2.09-1.89-.86-.49-1.94-.73-3.23-.73s-2.33,.24-3.19,.73c-.86,.49-1.56,1.13-2.09,1.92-.53,.79-1.03,1.78-1.5,2.98-.47,1.19-.87,2.22-1.2,3.07l-4.94,12.53c1.27-.22,2.79-.79,5.19-1.7,1.89-.72,2.87,5.82,4.31,5.05Z"/>
    <path class="cls-2" d="M15.77,34.4l-3.08,7.19c-.48,1.18-.82,2.11-1.03,2.77-.21,.67-.31,1.31-.31,1.93,0,1.08,.45,2.05,1.34,2.9,.89,.85,1.92,1.28,3.09,1.28,1.37,0,2.36-.4,2.96-1.2s1.33-2.34,2.18-4.63l2.18-5.86,4.31,.11c.18-.02-.51-.61-.69-.65-3.05-.57-5.93-4.7-6.36-4.93-1.27-.68-3.32,1.06-4.59,1.08Z"/>
    <g>
      <path class="cls-1" d="M.14,40.82c3.6,.49,5.2-.17,9.08-1.15,0,.24,0,.36,0,.6-3.91,1.08-5.5,1.8-9.08,1.28v-.73Z"/>
      <path class="cls-1" d="M9.23,38.55c-2.88,.58-4.15,.94-6.83,1,0-.27,0-.41,.01-.68,.42,0,.63-.02,1.05-.04,0-.02,0-.04,0-.06-.36-.07-.63-.21-.83-.42-.2-.21-.29-.46-.29-.76,0-.3,.11-.55,.31-.75,.2-.2,.49-.36,.85-.48,0-.02,0-.03,0-.05-.35-.11-.62-.28-.83-.51-.2-.23-.31-.51-.3-.84,0-.41,.2-.74,.59-.99s.98-.37,1.77-.36c1.8,.02,2.66,.02,4.5,.06,0,.23,0,.34,0,.57-1.85,0-2.72,.04-4.51,.04-.5,0-.85,.09-1.07,.27-.22,.18-.33,.39-.34,.64,0,.32,.13,.56,.42,.73,.28,.17,.64,.24,1.07,.22,1.75-.09,2.6-.18,4.43-.33,0,.23,0,.35,0,.58-1.93,.2-2.83,.33-4.67,.44-.38,.02-.69,.12-.93,.29-.24,.17-.36,.39-.37,.66,0,.18,.07,.34,.21,.49,.14,.15,.33,.26,.58,.33,.25,.07,.54,.09,.87,.05,1.68-.2,2.52-.38,4.31-.69,0,.23,0,.34,0,.57Z"/>
      <path class="cls-1" d="M9.24,32.64c-2.71-.21-3.94-.23-6.73-.34,0-.27,0-.41,.01-.68,.44,.02,.65,.03,1.08,.05,0-.02,0-.04,0-.06-.36-.11-.65-.28-.85-.5-.2-.22-.3-.48-.3-.78,0-.3,.11-.55,.33-.73,.21-.19,.5-.32,.87-.4,0-.02,0-.03,0-.05-.35-.15-.64-.34-.85-.59-.21-.25-.32-.53-.31-.86,0-.41,.21-.73,.61-.95,.4-.22,1.01-.27,1.8-.13,1.8,.32,2.63,.57,4.35,1.14,0,.23,0,.34,0,.57-1.73-.52-2.57-.74-4.37-1.04-.5-.08-.86-.04-1.08,.12s-.34,.36-.34,.61c0,.32,.14,.58,.42,.78,.29,.2,.65,.32,1.08,.38,1.74,.21,2.57,.36,4.28,.74,0,.23,0,.35,0,.58-1.82-.34-2.68-.47-4.53-.66-.38-.04-.7,.02-.94,.16-.24,.15-.37,.35-.37,.62,0,.18,.07,.35,.21,.52,.14,.16,.34,.3,.59,.41,.25,.11,.54,.17,.87,.19,1.67,.1,2.48,.16,4.16,.34,0,.23,0,.34,0,.57Z"/>
      <path class="cls-1" d="M9.39,25.71c0,.23-.08,.41-.23,.54-.15,.13-.37,.2-.67,.21-.29,0-.65-.05-1.06-.19-.37-.12-.67-.25-.9-.41-.23-.16-.41-.34-.54-.54-.13-.2-.23-.4-.29-.62-.06-.21-.11-.43-.15-.64-.05-.28-.08-.5-.1-.67-.02-.17-.07-.31-.13-.4s-.18-.17-.35-.21c-.01,0-.02,0-.04,0-.43-.12-.78-.11-1.03,0-.25,.11-.38,.33-.39,.65,0,.33,.1,.61,.32,.83,.22,.22,.45,.4,.7,.52-.15,.23-.22,.35-.37,.58-.41-.19-.75-.39-.98-.62-.24-.23-.41-.46-.5-.71-.09-.24-.14-.48-.14-.71,0-.15,.03-.31,.09-.5,.06-.18,.17-.36,.35-.51,.17-.15,.43-.27,.77-.32,.34-.05,.77-.01,1.31,.14,1.77,.52,2.56,.92,4.19,1.82,0,.23,0,.34,0,.57-.34-.18-.5-.26-.84-.42,0,.01,0,.02,0,.03,.14,.11,.28,.24,.43,.41,.15,.17,.28,.35,.39,.56,.11,.2,.16,.41,.16,.62Zm-.87-.48c0-.23-.07-.46-.22-.7-.15-.23-.34-.44-.57-.63s-.49-.34-.75-.45c-.36-.15-.54-.21-.91-.34,.05,.05,.1,.12,.13,.23,.04,.11,.07,.23,.1,.36,.03,.13,.05,.26,.07,.37,.02,.12,.03,.22,.05,.29,.03,.18,.08,.35,.15,.52,.07,.17,.18,.32,.32,.45,.14,.13,.34,.24,.59,.33,.34,.12,.6,.14,.77,.05,.17-.09,.26-.25,.26-.48Z"/>
      <path class="cls-1" d="M9.25,22.9c-2.44-1.51-3.61-2.18-6.56-2.55,0-.27,0-.41,.01-.68,.46,.06,.69,.1,1.13,.2,0-.02,0-.04,0-.06-.38-.18-.67-.38-.89-.63-.22-.25-.32-.51-.32-.81,0-.3,.12-.54,.34-.7,.22-.16,.53-.26,.91-.27,0-.02,0-.03,0-.05-.37-.21-.66-.45-.89-.72-.22-.27-.34-.57-.33-.89,0-.41,.23-.72,.64-.88,.42-.16,1.05-.12,1.84,.24,1.8,.82,2.58,1.48,4.11,2.93,0,.23,0,.34,0,.57-1.55-1.39-2.33-2.03-4.13-2.82-.5-.22-.87-.25-1.1-.14-.23,.11-.35,.3-.35,.55,0,.32,.14,.6,.44,.86,.29,.26,.66,.47,1.09,.64,1.74,.71,2.51,1.27,4.04,2.49,0,.23,0,.35,0,.58-1.63-1.23-2.44-1.79-4.29-2.47-.38-.14-.7-.15-.95-.05-.25,.1-.38,.29-.39,.55,0,.18,.07,.36,.22,.55,.15,.19,.35,.37,.61,.53,.26,.17,.55,.3,.88,.42,1.66,.6,2.41,1.05,3.92,2.04,0,.23,0,.34,0,.57Z"/>
      <path class="cls-1" d="M9.39,16.04c0,.23-.07,.37-.2,.42-.14,.05-.33,0-.6-.13s-.59-.36-.98-.68c-.34-.28-.63-.53-.85-.79s-.4-.5-.52-.74c-.13-.24-.22-.49-.28-.72-.06-.24-.11-.47-.14-.69-.05-.29-.08-.53-.1-.71-.02-.19-.06-.34-.13-.45-.06-.12-.18-.22-.34-.32-.01,0-.02-.01-.04-.02-.43-.24-.79-.31-1.05-.24-.26,.06-.4,.27-.4,.59,0,.33,.11,.62,.33,.89,.23,.27,.46,.49,.71,.68-.15,.19-.22,.29-.37,.5-.42-.28-.77-.53-1.02-.8-.25-.26-.43-.51-.53-.77-.1-.25-.15-.5-.15-.73,0-.15,.03-.31,.09-.49,.06-.19,.19-.35,.38-.49,.19-.13,.47-.21,.82-.2,.35,.01,.8,.14,1.33,.45,1.75,1.02,2.49,1.83,3.91,3.59,0,.23,0,.34,0,.57-.3-.35-.45-.52-.76-.86,0,.01,0,.02,0,.03,.12,.17,.25,.38,.39,.63,.14,.25,.25,.5,.35,.76,.09,.26,.14,.49,.14,.71Zm-.78-.92c0-.23-.06-.5-.2-.81-.13-.3-.31-.61-.53-.91-.22-.3-.45-.57-.7-.78-.34-.3-.51-.44-.87-.7,.05,.06,.09,.16,.13,.28,.04,.12,.07,.26,.09,.4,.03,.14,.05,.28,.07,.4,.02,.13,.03,.23,.04,.31,.03,.19,.08,.39,.15,.58,.07,.19,.17,.39,.31,.59,.14,.19,.32,.39,.56,.58,.32,.27,.55,.41,.71,.41,.16,0,.24-.12,.24-.36Z"/>
    </g>
    <g>
      <path class="cls-1" d="M16.42,33.79c-.54,.04-.8,.06-1.28,.07,2.36-3.3,2.91-4.53,6.28-9.91,.67-.35,1.01-.54,1.68-.84,.5,3.75,.63,6.39,1.31,11.35-.43-.2-.65-.3-1.12-.47-.39-4.19-.85-5.88-1.48-8.77-.04,.02-.06,.03-.1,.05-2.55,4.25-3.27,5.6-5.28,8.53Zm1.21-3.27c2.27-.55,4.31-1.56,5.99-.98-.08,.47-.12,.7-.2,1.17-1.77-.58-3.71,.25-5.97,.69,.07-.35,.11-.52,.18-.87Z"/>
      <path class="cls-1" d="M25.07,38.06c-.19-.07-.35-.14-.5-.23-.14-.09-.24-.15-.29-.21,.23-.42,.3-.67,.47-1.08,.25,.18,.47,.3,.67,.35,.2,.05,.38,0,.55-.13,.17-.14,.35-.44,.47-.79,.07-.22,.11-.32,.17-.54-.67-3.87-1.43-5.05-1.42-9.05,.21,.3,.29,.46,.54,.65,.21,2.89,.5,4.18,1.22,6.96,.02,.01,.03,.02,.05,.02,.42-2.26,.32-3.59,.66-6,.42,.14,.77,.21,1.2,.04-.54,4.32-.51,5.36-1.62,8.8-.12,.39-.3,.71-.52,.95-.22,.24-.44,.34-.72,.38-.28,.04-.59,0-.93-.13Z"/>
      <path class="cls-1" d="M34.22,37.71c-.62-.15-1.2-.53-1.73-1.07-.53-.54-.97-1.19-1.34-1.93-.37-.74-.64-1.53-.82-2.4-.18-.88-.23-1.62-.22-2.19,.01-.56,.07-.9,.14-.99,.07-.09,.15,.09,.48,.16,.32,.07,.81,.23,1.41,.82,.6,.59,1.22,1.32,1.8,2.09,.58,.76,1.09,1.53,1.53,2.36,.43,.82,.68,1.48,.71,1.99,.03,.51-.14,.85-.48,1.04-.35,.19-.85,.27-1.47,.12Zm-.45-1.14c.44,.11,.77,0,.95-.2,.18-.2,.24-.49,.16-.9-.07-.41-.25-.88-.52-1.42-.27-.54-.6-1.09-.98-1.63-.38-.55-.78-1.05-1.18-1.44-.4-.4-.75-.49-1.02-.55s-.38-.12-.42,.02c-.04,.14-.03,.4,.03,.8,.06,.4,.15,.89,.31,1.45s.35,1.1,.59,1.64c.25,.54,.54,1.02,.89,1.43,.35,.41,.74,.7,1.19,.8Z"/>
      <path class="cls-1" d="M39.45,34.83c-1.45-3.33-2.18-4.99-3.6-8.35,.1-.32,.14-.46,.2-.77,2.5,6.27,3.83,9.34,6.34,15.61-.18-.26-.28-.44-.46-.71-.41-.96-.61-1.44-1.02-2.4-.01-.01-.02-.02-.03-.03,.25,.65,.4,1.12,.48,1.41,.08,.3-.02,.32-.45,.2-.35-.1-.74-.33-1.14-.64-.4-.31-.79-.68-1.18-1.2-.4-.52-.78-1.13-1.17-1.84-1.15-2.13-1.75-3.18-2.85-5.36,.19-.17,.18-.55,.3-1.07,1.23,2.47,1.88,3.67,3.14,6.09,.37,.71,.75,1.23,1.18,1.65,.43,.42,.82,.68,1.15,.7,.2,.02,.24-.03,.22-.2s-.11-.49-.29-1c-.18-.5-.46-1.22-.84-2.1Z"/>
      <path class="cls-1" d="M43.92,40.97c-4.09-9.24-6.24-13.76-10.24-23.08-.16-.55,.52-.7,1.07-1.11,1.49,3.52,2.25,5.27,3.77,8.75,.04-.03,.07-.04,.11-.07-.04-.37-.08-.86-.12-1.46-.04-.6,.01-1.21,.15-1.82,.14-.61,.46-1.11,.95-1.48,.63-.48,1.32-.5,2.1-.06,.77,.44,1.57,1.28,2.39,2.51,.82,1.23,1.62,2.8,2.4,4.72,.78,1.93,1.33,3.69,1.67,5.3,.33,1.61,.44,2.98,.32,4.09-.12,1.11-.47,1.87-1.06,2.26-.46,.3-.91,.33-1.36,.1-.45-.22-.86-.54-1.22-.95s-.67-.75-.9-1.02c-.06,.03-.08,.04-.14,.07,.48,1.09,.71,1.63,1.19,2.72-.45,.22-.76,.31-1.07,.52Zm-2.78-9.38c.59,1.34,1.19,2.46,1.81,3.38,.62,.92,1.21,1.59,1.78,1.98,.56,.39,1.07,.45,1.51,.16,.46-.3,.71-.89,.75-1.73,.05-.84-.08-1.86-.36-3.03-.28-1.18-.69-2.42-1.22-3.72-.52-1.29-1.07-2.4-1.64-3.32-.57-.92-1.14-1.58-1.7-1.96-.56-.38-1.07-.39-1.56-.02-.47,.35-.76,.94-.86,1.74-.1,.8-.02,1.77,.23,2.88,.26,1.11,.67,2.33,1.25,3.65Z"/>
    </g>
  </g>
</svg>